<svg xmlns="http://www.w3.org/2000/svg" width="600" height="400" viewBox="0 0 600 400">
  <rect width="600" height="400" fill="#0a0a0a"/>
  <!-- Background X shape -->
  <line x1="50" y1="50" x2="550" y2="350" stroke="#161616" stroke-width="80"/>
  <line x1="550" y1="50" x2="50" y2="350" stroke="#161616" stroke-width="80"/>
  <!-- Kettlebell -->
  <circle cx="200" cy="180" r="55" fill="none" stroke="#f5b800" stroke-width="8"/>
  <rect x="178" y="108" width="44" height="28" rx="8" fill="none" stroke="#f5b800" stroke-width="8"/>
  <rect x="168" y="230" width="64" height="18" rx="4" fill="#f5b800"/>
  <!-- Jump rope person -->
  <circle cx="400" cy="155" r="25" fill="#ffffff"/>
  <line x1="400" y1="180" x2="400" y2="250" stroke="#ffffff" stroke-width="12" stroke-linecap="round"/>
  <line x1="400" y1="205" x2="370" y2="230" stroke="#ffffff" stroke-width="10" stroke-linecap="round"/>
  <line x1="400" y1="205" x2="430" y2="230" stroke="#ffffff" stroke-width="10" stroke-linecap="round"/>
  <line x1="400" y1="250" x2="375" y2="280" stroke="#ffffff" stroke-width="10" stroke-linecap="round"/>
  <line x1="400" y1="250" x2="425" y2="280" stroke="#ffffff" stroke-width="10" stroke-linecap="round"/>
  <!-- Jump rope -->
  <path d="M370 230 Q300 310 370 290 Q440 270 430 230" fill="none" stroke="#f5b800" stroke-width="3"/>
  <!-- Label -->
  <text x="300" y="345" font-family="Arial Black" font-size="26" font-weight="900" fill="#f5b800" text-anchor="middle" letter-spacing="3">ARENA CROSS</text>
  <line x1="80" y1="360" x2="520" y2="360" stroke="#f5b800" stroke-width="1" opacity="0.4"/>
</svg>
